<svg width="92" height="72" viewBox="0 0 92 72" fill="none" xmlns="http://www.w3.org/2000/svg">
<g opacity="0.3">
<path d="M73.5046 24.4818C76.3142 24.1746 78.3427 21.648 78.0355 18.8384C77.7283 16.0289 75.2017 14.0003 72.3922 14.3075C69.5826 14.6147 67.5541 17.1413 67.8613 19.9509C68.1685 22.7604 70.6951 24.789 73.5046 24.4818Z" stroke="#EB996E" stroke-width="0.561983" stroke-linecap="round" stroke-linejoin="round"/>
<path d="M76.7899 21.4711C77.9346 19.3514 77.1442 16.7051 75.0244 15.5604C72.9047 14.4157 70.2584 15.2061 69.1137 17.3258C67.969 19.4455 68.7594 22.0919 70.8791 23.2366C72.9988 24.3813 75.6452 23.5908 76.7899 21.4711Z" stroke="#EB996E" stroke-width="0.561983" stroke-linecap="round" stroke-linejoin="round"/>
<path d="M74.8063 20.2704C74.8063 18.8036 72.7257 18.7706 72.7257 18.1582C72.7257 17.8362 72.895 17.7385 73.2418 17.7385C73.5404 17.7385 73.7922 17.8679 74.0797 18.1266L74.7678 17.3354C74.4502 16.9796 74.0214 16.7419 73.5514 16.6611V15.8355H72.6446V16.6845C71.8671 16.8524 71.4061 17.4069 71.4061 18.2229C71.4061 19.6333 73.4881 19.7228 73.4881 20.3681C73.4881 20.6819 73.3257 20.8195 72.9225 20.8195C72.584 20.8195 72.2455 20.6901 71.8093 20.3681L71.2135 21.3038C71.6226 21.6418 72.1213 21.8532 72.6487 21.912V22.7225H73.5527V21.8556C74.3907 21.6561 74.8063 21.0479 74.8063 20.2704Z" stroke="#EB996E" stroke-width="0.561983" stroke-linecap="round" stroke-linejoin="round"/>
</g>
<g opacity="0.3">
<path d="M75.9979 48.9165C77.2867 48.9165 78.3316 47.8716 78.3316 46.5827C78.3316 45.2938 77.2867 44.249 75.9979 44.249C74.709 44.249 73.6641 45.2938 73.6641 46.5827C73.6641 47.8716 74.709 48.9165 75.9979 48.9165Z" stroke="#EB996E" stroke-width="0.561983" stroke-linecap="round" stroke-linejoin="round"/>
<path d="M77.4042 47.9899C78.1812 47.2129 78.1812 45.9531 77.4042 45.176C76.6272 44.399 75.3673 44.399 74.5903 45.176C73.8133 45.9531 73.8133 47.2129 74.5903 47.9899C75.3673 48.767 76.6272 48.767 77.4042 47.9899Z" stroke="#EB996E" stroke-width="0.561983" stroke-linecap="round" stroke-linejoin="round"/>
<path d="M76.8441 46.9818C76.8441 46.3131 75.8946 46.2938 75.8946 46.0186C75.8946 45.8714 75.9717 45.8273 76.1299 45.8273C76.2757 45.8347 76.4132 45.8977 76.5138 46.0035L76.8262 45.6429C76.6819 45.4821 76.4883 45.3737 76.2758 45.3347V44.959H75.863V45.3457C75.6957 45.3699 75.5437 45.456 75.4369 45.587C75.3301 45.718 75.2764 45.8843 75.2864 46.053C75.2864 46.697 76.2359 46.741 76.2359 47.0313C76.2359 47.1758 76.1616 47.2377 75.9786 47.2377C75.791 47.2275 75.6123 47.1548 75.4708 47.0313L75.1956 47.4593C75.3824 47.613 75.6101 47.7087 75.8506 47.7345V48.1046H76.2634V47.7042C76.4317 47.6755 76.5837 47.5862 76.6907 47.4531C76.7977 47.32 76.8522 47.1524 76.8441 46.9818Z" stroke="#EB996E" stroke-width="0.561983" stroke-linecap="round" stroke-linejoin="round"/>
</g>
<g opacity="0.3">
<path d="M34.0732 9.49973C36.0708 9.18012 37.431 7.30166 37.1114 5.30406C36.7918 3.30646 34.9134 1.94618 32.9158 2.26579C30.9182 2.58539 29.5579 4.46386 29.8775 6.46145C30.1971 8.45905 32.0756 9.81933 34.0732 9.49973Z" stroke="#EB996E" stroke-width="0.561983" stroke-linecap="round" stroke-linejoin="round"/>
<path d="M36.131 7.55815C37.0547 6.10208 36.6231 4.1729 35.1671 3.24921C33.711 2.32551 31.7818 2.75709 30.8581 4.21316C29.9344 5.66923 30.366 7.59841 31.8221 8.52211C33.2782 9.4458 35.2073 9.01422 36.131 7.55815Z" stroke="#EB996E" stroke-width="0.561983" stroke-linecap="round" stroke-linejoin="round"/>
<path d="M34.8218 6.51158C34.8218 5.46168 33.3329 5.43828 33.3329 4.99796C33.3329 4.76816 33.454 4.69798 33.703 4.69798C33.9312 4.70833 34.1463 4.80702 34.303 4.97319L34.7929 4.40764C34.5655 4.15249 34.2585 3.98178 33.9218 3.92328V3.3371H33.2751V3.94668C33.0172 3.98809 32.7837 4.12344 32.6196 4.32667C32.4555 4.5299 32.3724 4.78664 32.3862 5.04749C32.3862 6.05749 33.8751 6.12079 33.8751 6.58313C33.8751 6.80743 33.7608 6.9065 33.4719 6.9065C33.2297 6.9065 32.9861 6.81431 32.6752 6.58313L32.2486 7.24913C32.5406 7.49208 32.8976 7.64377 33.2751 7.68533V8.26739H33.9218V7.6468C34.1838 7.59849 34.4194 7.45683 34.5848 7.24808C34.7503 7.03933 34.8345 6.77766 34.8218 6.51158Z" stroke="#EB996E" stroke-width="0.561983" stroke-linecap="round" stroke-linejoin="round"/>
</g>
<g opacity="0.3">
<path d="M4.85282 49.5308C6.12506 49.3242 6.989 48.1255 6.78248 46.8533C6.57597 45.581 5.37721 44.7171 4.10497 44.9236C2.83274 45.1301 1.9688 46.3289 2.17532 47.6011C2.38183 48.8733 3.58059 49.7373 4.85282 49.5308Z" stroke="#EB996E" stroke-width="0.561983" stroke-linecap="round" stroke-linejoin="round"/>
<path d="M6.46603 47.2281C6.46603 46.8346 6.34934 46.4499 6.1307 46.1227C5.91207 45.7955 5.60131 45.5404 5.23774 45.3898C4.87416 45.2392 4.4741 45.1998 4.08813 45.2766C3.70216 45.3534 3.34762 45.5429 3.06935 45.8212C2.79108 46.0994 2.60158 46.454 2.52481 46.8399C2.44803 47.2259 2.48743 47.626 2.63803 47.9895C2.78863 48.3531 3.04366 48.6639 3.37087 48.8825C3.69808 49.1011 4.08277 49.2178 4.4763 49.2178C5.00401 49.2178 5.51011 49.0082 5.88325 48.6351C6.2564 48.2619 6.46603 47.7558 6.46603 47.2281V47.2281Z" stroke="#EB996E" stroke-width="0.561983" stroke-linecap="round" stroke-linejoin="round"/>
<path d="M5.32259 47.6285C5.32259 46.9584 4.37451 46.9405 4.37451 46.6653C4.37451 46.518 4.45157 46.474 4.60981 46.474C4.75528 46.4811 4.89235 46.5443 4.99234 46.6501L5.3047 46.2896C5.16083 46.1285 4.96698 46.0205 4.75429 45.9828V45.6057H4.34148V45.9938C4.17686 46.0198 4.02773 46.1059 3.923 46.2356C3.81826 46.3652 3.76537 46.5291 3.77456 46.6956C3.77456 47.3382 4.72402 47.3836 4.72402 47.6739C4.72402 47.8115 4.65109 47.8789 4.4667 47.8789C4.27934 47.8691 4.10064 47.7969 3.95895 47.6739L3.68375 48.1005C3.87093 48.2535 4.09841 48.3491 4.33873 48.3757V48.7445H4.75154V48.3509C4.91836 48.3207 5.06841 48.2306 5.17354 48.0976C5.27868 47.9646 5.33168 47.7978 5.32259 47.6285V47.6285Z" stroke="#EB996E" stroke-width="0.561983" stroke-linecap="round" stroke-linejoin="round"/>
</g>
<g opacity="0.3">
<path d="M62.9887 59.9874C64.2633 59.7958 65.1412 58.6072 64.9496 57.3326C64.7579 56.0581 63.5694 55.1802 62.2948 55.3718C61.0202 55.5634 60.1423 56.752 60.334 58.0265C60.5256 59.3011 61.7142 60.179 62.9887 59.9874Z" stroke="#EB996E" stroke-width="0.561983" stroke-linecap="round" stroke-linejoin="round"/>
<path d="M64.6292 57.6831C64.6286 57.2897 64.5115 56.9053 64.2925 56.5784C64.0735 56.2516 63.7626 55.997 63.399 55.8468C63.0354 55.6966 62.6354 55.6576 62.2496 55.7347C61.8638 55.8118 61.5095 56.0015 61.2315 56.2799C60.9535 56.5583 60.7643 56.9128 60.6878 57.2987C60.6112 57.6846 60.6508 58.0845 60.8014 58.4479C60.9521 58.8114 61.2071 59.1219 61.5343 59.3405C61.8614 59.559 62.246 59.6756 62.6394 59.6756C62.901 59.6758 63.1601 59.6243 63.4017 59.5242C63.6434 59.4241 63.8629 59.2773 64.0478 59.0922C64.2326 58.9072 64.3791 58.6874 64.4789 58.4456C64.5786 58.2038 64.6297 57.9447 64.6292 57.6831V57.6831Z" stroke="#EB996E" stroke-width="0.561983" stroke-linecap="round" stroke-linejoin="round"/>
<path d="M63.4857 58.0822C63.4857 57.4134 62.5376 57.3942 62.5376 57.119C62.5376 56.9717 62.6147 56.9277 62.7729 56.9277C62.9184 56.9348 63.0555 56.9979 63.1555 57.1038L63.4678 56.7433C63.3241 56.5817 63.1303 56.4731 62.9174 56.4351V56.0594H62.5046V56.4475C62.3402 56.4734 62.1913 56.5594 62.0866 56.6887C61.9819 56.8181 61.9288 56.9817 61.9377 57.1479C61.9377 57.7918 62.8871 57.8359 62.8871 58.1276C62.8871 58.2652 62.8142 58.3326 62.6298 58.3326C62.4425 58.3227 62.2638 58.2506 62.1221 58.1276L61.8469 58.5541C62.034 58.7072 62.2615 58.8028 62.5019 58.8294V59.1981H62.9147V58.8032C63.0811 58.7727 63.2308 58.6828 63.3358 58.5501C63.4409 58.4175 63.4942 58.2512 63.4857 58.0822Z" stroke="#EB996E" stroke-width="0.561983" stroke-linecap="round" stroke-linejoin="round"/>
</g>
<g opacity="0.3">
<path d="M16.4835 23.0789C17.7724 23.0789 18.8172 22.034 18.8172 20.7451C18.8172 19.4563 17.7724 18.4114 16.4835 18.4114C15.1946 18.4114 14.1498 19.4563 14.1498 20.7451C14.1498 22.034 15.1946 23.0789 16.4835 23.0789Z" stroke="#EB996E" stroke-width="0.561983" stroke-linecap="round" stroke-linejoin="round"/>
<path d="M18.3545 21.4205C18.7286 20.3872 18.1941 19.2464 17.1609 18.8723C16.1276 18.4983 14.9867 19.0327 14.6127 20.066C14.2386 21.0993 14.7731 22.2401 15.8063 22.6142C16.8396 22.9882 17.9805 22.4538 18.3545 21.4205Z" stroke="#EB996E" stroke-width="0.561983" stroke-linecap="round" stroke-linejoin="round"/>
<path d="M17.3312 21.1469C17.3312 20.4768 16.3817 20.4589 16.3817 20.1837C16.3817 20.0365 16.4588 19.9924 16.617 19.9924C16.7628 19.9995 16.9 20.0632 16.9995 20.17L17.3119 19.8094C17.1682 19.6478 16.9744 19.5393 16.7615 19.5012V19.1242H16.3487V19.5122C16.1842 19.5385 16.0352 19.6247 15.9306 19.7543C15.8259 19.8839 15.7729 20.0476 15.7818 20.214C15.7818 20.858 16.7312 20.902 16.7312 21.1923C16.7312 21.3299 16.6583 21.3987 16.4739 21.3987C16.2865 21.3881 16.1079 21.3155 15.9662 21.1923L15.6909 21.6189C15.8781 21.772 16.1056 21.8675 16.3459 21.8941V22.2643H16.7587V21.868C16.9254 21.8378 17.0754 21.7479 17.1808 21.6153C17.2861 21.4826 17.3396 21.3161 17.3312 21.1469V21.1469Z" stroke="#EB996E" stroke-width="0.561983" stroke-linecap="round" stroke-linejoin="round"/>
</g>
<g opacity="0.3">
<path d="M15.0376 54.1098C17.847 53.8016 19.8747 51.2743 19.5665 48.4649C19.2583 45.6555 16.731 43.6278 13.9216 43.936C11.1121 44.2442 9.08448 46.7715 9.39266 49.5809C9.70084 52.3903 12.2282 54.418 15.0376 54.1098Z" stroke="#EB996E" stroke-width="0.561983" stroke-linecap="round" stroke-linejoin="round"/>
<path d="M18.3941 50.9492C19.46 48.7887 18.5726 46.1733 16.4122 45.1074C14.2518 44.0415 11.6363 44.9288 10.5704 47.0893C9.50457 49.2497 10.3919 51.8652 12.5523 52.931C14.7128 53.9969 17.3282 53.1096 18.3941 50.9492Z" stroke="#EB996E" stroke-width="0.561983" stroke-linecap="round" stroke-linejoin="round"/>
<path d="M16.339 49.8976C16.339 48.4294 14.2585 48.3977 14.2585 47.784C14.2585 47.462 14.4277 47.3643 14.7745 47.3643C15.0731 47.3643 15.3249 47.4937 15.6138 47.7524L16.3019 46.9612C15.9833 46.6059 15.5543 46.3683 15.0841 46.2869V45.4613H14.1773V46.3117C13.4012 46.4796 12.9389 47.0341 12.9389 47.8487C12.9389 49.2605 15.0194 49.3486 15.0194 49.9939C15.0194 50.309 14.8584 50.4453 14.4552 50.4453C14.1167 50.4453 13.7769 50.3159 13.342 49.9939L12.7448 50.9296C13.1541 51.2674 13.6527 51.4787 14.18 51.5378V52.3483H15.0841V51.4814C15.9235 51.2819 16.339 50.6737 16.339 49.8976Z" stroke="#EB996E" stroke-width="0.561983" stroke-linecap="round" stroke-linejoin="round"/>
</g>
<path d="M11.5491 24.4068C11.5821 25.0631 11.029 26.4281 11.029 26.4295C11.029 26.4309 10.2391 25.7924 10.1951 25.7415C9.6777 25.1993 8.99519 23.8495 9.39424 23.1119C9.46396 22.9912 9.55832 22.8865 9.67117 22.8046C9.78401 22.7228 9.91283 22.6656 10.0492 22.6367C10.1856 22.6079 10.3266 22.6081 10.4629 22.6374C10.5992 22.6666 10.7278 22.7242 10.8404 22.8064C11.3289 23.1436 11.5202 23.8481 11.5491 24.4068Z" fill="#BC9434"/>
<path d="M24.9405 37.446L25.0259 37.4969L25.0369 38.0899L24.6819 37.8712C24.3392 37.6579 23.9773 37.4239 23.6072 37.1831C23.3211 37.4948 23.017 37.7893 22.6963 38.0652C22.9797 38.6321 23.0994 39.854 23.1091 40.0109C23.5067 40.0012 23.8934 39.9875 24.258 39.9696C24.5085 39.9572 24.7493 39.9434 24.9818 39.9283L24.7864 40.4457C24.6199 40.4457 24.4521 40.4581 24.2773 40.4622C23.8741 40.4732 23.4434 40.4787 23.0004 40.4787C22.9756 40.637 22.7637 41.9373 22.4238 42.4533C22.1156 42.9198 21.5982 43.4289 21.001 43.4661C20.8632 43.4791 20.7242 43.4632 20.5929 43.4193C20.4616 43.3754 20.3409 43.3045 20.2387 43.2112C20.1364 43.1179 20.0548 43.0042 19.9991 42.8775C19.9434 42.7507 19.9149 42.6138 19.9153 42.4753C19.947 41.6359 21.2212 40.8241 21.9422 40.6177C21.9849 40.6067 22.461 40.5282 22.7609 40.4801C22.5807 40.4801 22.4045 40.4801 22.2188 40.4801C21.85 40.4801 21.4826 40.4608 21.0863 40.4471L20.5084 40.4058C20.3157 40.3962 20.1121 40.3618 19.9126 40.3397C19.4488 40.2806 18.9837 40.2021 18.5159 40.1044C18.5159 40.4264 18.4801 41.5713 18.2407 42.0818C18.0013 42.5923 17.5678 43.173 16.9885 43.2996C16.8532 43.3338 16.7122 43.3391 16.5747 43.3152C16.4372 43.2912 16.3063 43.2386 16.1905 43.1607C16.0747 43.0828 15.9766 42.9814 15.9026 42.8631C15.8287 42.7448 15.7804 42.6122 15.7611 42.4739C15.6648 41.6401 16.8014 40.6411 17.4839 40.3315C17.5252 40.3122 18.0343 40.1457 18.3246 40.0563C18.0494 39.9971 17.7632 39.9407 17.4811 39.8719C16.6665 39.6737 15.8492 39.4481 15.0318 39.2265L14.2846 39.0353C14.2846 39.1509 14.2777 40.5131 14.0094 41.0842C13.7755 41.5919 13.3352 42.1753 12.7572 42.3019C12.6219 42.3364 12.4809 42.3419 12.3433 42.318C12.2057 42.2942 12.0747 42.2416 11.9589 42.1637C11.843 42.0857 11.7449 41.9842 11.671 41.8658C11.5971 41.7474 11.549 41.6146 11.5298 41.4763C11.4335 40.6425 12.5701 39.6435 13.2512 39.3339C13.3035 39.3105 14.0438 39.071 14.2351 39.0201C13.6847 38.8743 13.1343 38.7353 12.5839 38.6211C11.8437 38.4623 11.094 38.3515 10.3396 38.2895C10.3396 38.3431 10.3396 39.7646 10.0644 40.3535C9.82907 40.8612 9.39012 41.4433 8.81219 41.5699C8.67678 41.6046 8.53558 41.6102 8.39784 41.5865C8.2601 41.5628 8.12893 41.5102 8.01291 41.4323C7.8969 41.3543 7.79866 41.2527 7.72464 41.1342C7.65062 41.0156 7.60249 40.8827 7.5834 40.7443C7.48845 39.9118 8.62367 38.9114 9.30618 38.6018C9.35985 38.5784 10.1566 38.3266 10.3038 38.284C10.2598 38.284 10.2157 38.2729 10.1662 38.2702C9.40809 38.2291 8.64784 38.2553 7.89438 38.3486C7.48157 38.3954 7.08253 38.4628 6.69862 38.5371C6.72614 38.8027 6.83622 40.0136 6.65183 40.5682C6.47433 41.0993 6.10142 41.7254 5.54001 41.9153C5.41078 41.9616 5.27334 41.9806 5.13639 41.9711C4.99944 41.9616 4.86596 41.9237 4.74439 41.86C4.62281 41.7962 4.51579 41.7079 4.4301 41.6007C4.34441 41.4934 4.2819 41.3696 4.24655 41.2369C4.05941 40.4113 5.07216 39.3008 5.72302 38.9183C5.75742 38.8977 6.13582 38.7257 6.41103 38.6032C6.23765 38.6403 6.06014 38.6747 5.89502 38.7119C5.27719 38.8495 4.71852 39.0201 4.22591 39.1729C3.9507 39.2623 3.69614 39.3476 3.46221 39.4302C3.35351 39.7054 2.89942 40.8062 2.48799 41.2011C2.07656 41.596 1.4656 41.9744 0.880794 41.8891C0.295985 41.8038 -0.12095 41.2644 0.0317882 40.6796C0.24232 39.8678 1.66237 39.3449 2.41093 39.3036C2.4756 39.3036 3.49249 39.3586 3.48698 39.3724V39.3889C3.71127 39.305 3.9507 39.2169 4.21627 39.1275C4.70614 38.9637 5.26205 38.7835 5.87988 38.628C6.54359 38.4508 7.21718 38.313 7.89713 38.2152C8.65778 38.1041 9.42679 38.0608 10.1951 38.0858H10.2226C9.99006 38.0032 9.35159 37.7501 9.3048 37.7253C8.64431 37.3717 7.57514 36.3025 7.72375 35.4769C7.75228 35.3405 7.80922 35.2116 7.89088 35.0986C7.97253 34.9857 8.07707 34.8912 8.19767 34.8214C8.31828 34.7515 8.45224 34.7079 8.59084 34.6933C8.72944 34.6787 8.86956 34.6934 9.00208 34.7366C9.57175 34.9003 9.9653 35.5085 10.1731 36.0314C10.4001 36.6203 10.3189 37.9854 10.3107 38.0954C11.0919 38.1405 11.8692 38.2375 12.6375 38.3858C13.0847 38.4697 13.5347 38.5688 13.9833 38.6734C13.7851 38.5949 13.609 38.5234 13.5856 38.511C12.9237 38.1574 11.856 37.0882 12.0046 36.2626C12.0331 36.1261 12.0901 35.9972 12.1717 35.8843C12.2533 35.7713 12.3578 35.6767 12.4784 35.6068C12.599 35.5368 12.7329 35.493 12.8715 35.4782C13.0101 35.4634 13.1503 35.478 13.2829 35.5209C13.8526 35.6846 14.253 36.2942 14.4539 36.8171C14.6548 37.34 14.6121 38.5124 14.5915 38.8206C14.7635 38.8619 14.9355 38.9018 15.1061 38.9444C15.9317 39.1481 16.7573 39.3573 17.5609 39.5334C17.8458 39.5967 18.1306 39.649 18.4141 39.7013C18.2379 39.6311 18.0907 39.5719 18.0701 39.5637C17.4082 39.2114 16.339 38.1409 16.489 37.3152C16.5175 37.1788 16.5745 37.0499 16.6561 36.937C16.7378 36.8241 16.8423 36.7296 16.9629 36.6597C17.0835 36.5899 17.2175 36.5463 17.3561 36.5316C17.4947 36.517 17.6348 36.5318 17.7673 36.5749C18.3356 36.7387 18.7374 37.3483 18.9383 37.8698C19.1392 38.3913 19.1007 39.4522 19.0759 39.8182C19.3677 39.8636 19.6608 39.909 19.9456 39.9393C20.141 39.9558 20.3267 39.9861 20.5235 39.9916L21.1028 40.0205C21.4716 40.0205 21.8514 40.0315 22.2119 40.0274C22.461 40.0274 22.7004 40.0205 22.9398 40.015C22.655 39.9558 22.0991 39.8279 22.0537 39.8113C21.4407 39.5695 20.8998 39.1749 20.4822 38.6651C20.4131 38.6411 20.3463 38.6107 20.2827 38.5743C20.1594 38.5092 20.0513 38.4188 19.9653 38.309C19.8793 38.1992 19.8174 38.0726 19.7836 37.9373C19.7498 37.802 19.745 37.6611 19.7693 37.5238C19.7937 37.3865 19.8467 37.2559 19.9249 37.1405C20.4134 36.4594 21.9257 36.4814 22.6385 36.7112C22.6811 36.7249 23.1214 36.9217 23.3967 37.051C23.2467 36.9506 23.0994 36.8543 22.9453 36.7483C22.6398 36.5419 22.3412 36.3273 22.0193 36.0975L21.5693 35.7328C21.4138 35.6186 21.2638 35.4782 21.1083 35.3489C20.7561 35.0448 20.4121 34.7173 20.0736 34.3857C19.8933 34.6526 19.2356 35.5911 18.7567 35.8869C18.2778 36.1828 17.594 36.425 17.0422 36.2117C16.4904 35.9984 16.1959 35.3861 16.4698 34.8494C16.8495 34.1008 18.3494 33.8944 19.0842 34.0114C19.131 34.0197 19.6511 34.1641 19.936 34.2481C19.7351 34.0444 19.5328 33.8422 19.3346 33.6289C18.765 33.0152 18.2063 32.3753 17.6476 31.7396C17.4756 31.5456 17.3022 31.3529 17.1302 31.1603C17.0669 31.2566 16.3046 32.3891 15.7735 32.7207C15.2988 33.0152 14.6107 33.2573 14.059 33.0441C13.9273 32.9983 13.8068 32.9254 13.7052 32.83C13.6036 32.7346 13.5232 32.619 13.4692 32.4905C13.4152 32.362 13.3888 32.2236 13.3918 32.0843C13.3948 31.945 13.4271 31.8078 13.4865 31.6818C13.8677 30.9346 15.3662 30.7268 16.101 30.8452C16.1574 30.8548 16.9073 31.0626 17.0945 31.1204C16.7147 30.6952 16.3322 30.2755 15.9386 29.882C15.4089 29.3417 14.8449 28.8361 14.2502 28.3683C14.2213 28.4137 13.4356 29.5985 12.888 29.9384C12.4119 30.2328 11.7239 30.4764 11.1721 30.2631C11.0404 30.2173 10.9198 30.1442 10.8182 30.0487C10.7166 29.9531 10.6363 29.8373 10.5824 29.7087C10.5286 29.58 10.5024 29.4415 10.5056 29.3021C10.5088 29.1627 10.5413 29.0255 10.601 28.8995C10.9808 28.1523 12.4793 27.9459 13.2155 28.0629C13.2746 28.0725 14.081 28.2982 14.2241 28.3491C14.1897 28.3216 14.1567 28.2899 14.1209 28.2638C13.5112 27.8118 12.8629 27.4144 12.1834 27.0763C11.8105 26.8864 11.4431 26.724 11.0826 26.574C10.9588 26.8107 10.3809 27.8812 9.92264 28.2417C9.46442 28.6023 8.82182 28.9036 8.25215 28.7522C8.11632 28.7211 7.98858 28.6616 7.87722 28.5779C7.76586 28.4941 7.67337 28.3878 7.60575 28.266C7.53814 28.1441 7.49692 28.0094 7.48478 27.8706C7.47263 27.7317 7.48982 27.5919 7.53524 27.4602C7.82971 26.6758 9.29655 26.3057 10.0451 26.3415C10.0864 26.3415 10.4978 26.4089 10.7964 26.4612C10.6327 26.3965 10.4648 26.3236 10.3066 26.2672C9.71211 26.0442 9.15482 25.8764 8.65532 25.7305C8.38012 25.6507 8.11592 25.5846 7.87512 25.5241C7.63294 25.692 6.64908 26.358 6.08629 26.4625C5.52349 26.5671 4.80659 26.5451 4.36901 26.1474C3.93144 25.7498 3.87777 25.0741 4.32773 24.671C4.95107 24.1095 6.42341 24.4577 7.07152 24.8333C7.12656 24.8664 7.94392 25.4759 7.93153 25.4856L7.9164 25.4952C8.14895 25.5489 8.39801 25.608 8.66908 25.6782C9.16858 25.8158 9.73 25.9686 10.3313 26.1805C10.9816 26.4008 11.6184 26.659 12.2385 26.9538C12.934 27.2814 13.5993 27.6696 14.2268 28.1138L14.2475 28.1317C14.1002 27.9349 13.7081 27.3707 13.6819 27.3239C13.3255 26.6648 13.0242 25.1828 13.6049 24.5719C13.7039 24.474 13.8225 24.3981 13.9528 24.349C14.0832 24.3 14.2224 24.279 14.3614 24.2873C14.5004 24.2956 14.6361 24.333 14.7597 24.3973C14.8832 24.4615 14.9919 24.551 15.0786 24.66C15.4639 25.1099 15.4611 25.8392 15.3414 26.3855C15.2038 27.0019 14.3782 28.0959 14.319 28.1826C14.9521 28.6523 15.5529 29.1639 16.1175 29.7141C16.445 30.0319 16.7656 30.3608 17.0807 30.6952C16.9596 30.5218 16.8509 30.3649 16.8385 30.3416C16.4821 29.6824 16.1808 28.1991 16.7615 27.5895C16.8605 27.4916 16.9791 27.4157 17.1094 27.3667C17.2398 27.3176 17.379 27.2966 17.518 27.3049C17.657 27.3132 17.7927 27.3507 17.9163 27.4149C18.0398 27.4791 18.1485 27.5686 18.2352 27.6776C18.6205 28.1275 18.6177 28.8568 18.498 29.4031C18.3783 29.9494 17.6944 30.9043 17.51 31.1534C17.6311 31.2828 17.7522 31.4107 17.8719 31.5401C18.4457 32.1648 19.0154 32.7895 19.5933 33.3853C19.797 33.5958 20.0061 33.7981 20.2125 33.9963C20.1052 33.8408 20.0158 33.7101 20.0034 33.688C19.647 33.0289 19.3456 31.5469 19.9263 30.936C20.3391 30.4998 21.0271 30.5837 21.4 31.0241C21.7729 31.4644 21.7826 32.2047 21.6629 32.751C21.5431 33.2973 20.9253 34.1586 20.7079 34.4545C20.9267 34.654 21.1455 34.8535 21.367 35.0365C21.5198 35.1576 21.6601 35.2856 21.8211 35.3984L22.2876 35.7411C22.5931 35.9488 22.9054 36.1649 23.2081 36.3589C23.4173 36.4965 23.6209 36.6231 23.8232 36.7511C23.6182 36.5447 23.2246 36.1305 23.1958 36.092C22.743 35.4948 22.2215 34.0761 22.7031 33.3881C22.7862 33.2762 22.892 33.1832 23.0134 33.1148C23.1348 33.0465 23.2692 33.0045 23.408 32.9915C23.5467 32.9786 23.6866 32.9949 23.8186 33.0395C23.9506 33.0841 24.0717 33.156 24.1741 33.2505C24.6213 33.6371 24.7245 34.3582 24.6942 34.9168C24.6543 35.5319 24.0393 36.6933 23.9608 36.8433C24.2966 37.0579 24.6254 37.2602 24.9405 37.446Z" fill="#BC9434"/>
<path d="M6.58166 38.4504C6.58166 38.4656 5.57166 38.3541 5.50837 38.3404C4.7777 38.1739 3.4636 37.4239 3.38929 36.5887C3.38102 36.4495 3.40214 36.3102 3.45125 36.1797C3.50037 36.0493 3.57639 35.9306 3.67438 35.8314C3.77237 35.7323 3.89012 35.6549 4.01999 35.6042C4.14986 35.5536 4.28894 35.5308 4.42819 35.5374C5.01988 35.5443 5.56753 36.0259 5.89916 36.4772C6.28857 37.0056 6.58166 38.4491 6.58166 38.4504Z" fill="#BC9434"/>
<path d="M79.6787 24.4068C79.6457 25.0631 80.1975 26.4281 80.1975 26.4295C80.1975 26.4309 80.9873 25.7924 81.0327 25.7415C81.5501 25.1993 82.2326 23.8495 81.8336 23.1119C81.7639 22.9912 81.6695 22.8865 81.5567 22.8046C81.4438 22.7228 81.315 22.6656 81.1786 22.6367C81.0422 22.6079 80.9012 22.6081 80.7649 22.6374C80.6286 22.6666 80.5 22.7242 80.3874 22.8064C79.8975 23.1436 79.7063 23.8481 79.6787 24.4068Z" fill="#BC9434"/>
<path d="M66.2873 37.4459L66.2006 37.4969L66.191 38.0899L66.546 37.8711C66.8886 37.6579 67.2505 37.4239 67.6193 37.1831C67.9054 37.4948 68.2095 37.7893 68.5302 38.0652C68.2468 38.6321 68.1284 39.854 68.1174 40.0109C67.7197 40.0012 67.3345 39.9875 66.9698 39.9696C66.718 39.9572 66.4772 39.9434 66.246 39.9283L66.4428 40.4498C66.6079 40.4498 66.7758 40.4622 66.9505 40.4663C67.3537 40.4773 67.7858 40.4828 68.2289 40.4828C68.2536 40.6411 68.4655 41.9414 68.8054 42.4574C69.1137 42.9239 69.631 43.433 70.2268 43.4702C70.3656 43.4839 70.5056 43.4683 70.6379 43.4242C70.7702 43.3802 70.8917 43.3088 70.9945 43.2147C71.0973 43.1206 71.1791 43.0058 71.2347 42.878C71.2902 42.7501 71.3181 42.612 71.3167 42.4726C71.285 41.6332 70.0108 40.8213 69.2898 40.6149C69.2471 40.6039 68.771 40.5255 68.4642 40.4773C68.6458 40.4773 68.8206 40.4773 69.0146 40.4773C69.3833 40.4773 69.7507 40.4581 70.1457 40.4443L70.7236 40.403C70.9176 40.3934 71.1199 40.359 71.3208 40.337C71.7831 40.2778 72.2496 40.1994 72.7175 40.1017C72.7175 40.4237 72.7519 41.5685 72.9927 42.079C73.2335 42.5895 73.6669 43.1702 74.2448 43.2968C74.3802 43.331 74.5213 43.3363 74.6589 43.3124C74.7964 43.2885 74.9274 43.2359 75.0433 43.158C75.1593 43.0801 75.2575 42.9787 75.3316 42.8604C75.4057 42.7421 75.4541 42.6095 75.4736 42.4712C75.5686 41.6373 74.4334 40.6383 73.7508 40.3287C73.7082 40.3094 73.2004 40.143 72.9101 40.0535C73.1853 39.9943 73.4701 39.9379 73.7536 39.8691C74.5668 39.671 75.3856 39.4453 76.2029 39.2238L76.9377 39.0353C76.9377 39.1508 76.9446 40.5131 77.2129 41.0842C77.4468 41.5919 77.8858 42.1753 78.4637 42.3019C79.0417 42.4285 79.6237 42.0804 79.6925 41.4763C79.7875 40.6424 78.6522 39.6435 77.9697 39.3339C77.9188 39.3105 77.1785 39.071 76.9872 39.0201C77.5377 38.8743 78.0881 38.7353 78.6385 38.6211C79.3782 38.4623 80.1274 38.3515 80.8814 38.2894C80.8814 38.3431 80.8814 39.7645 81.1566 40.3535C81.3905 40.8612 81.8309 41.4433 82.4088 41.5699C82.5441 41.6043 82.6851 41.6098 82.8227 41.586C82.9603 41.5621 83.0913 41.5095 83.2072 41.4316C83.323 41.3537 83.4211 41.2522 83.495 41.1337C83.569 41.0153 83.6171 40.8826 83.6362 40.7443C83.7325 39.9118 82.5973 38.9114 81.9148 38.6018C81.8611 38.5784 81.0644 38.3266 80.9158 38.2839C80.9598 38.2839 81.0052 38.2729 81.0534 38.2702C81.811 38.2291 82.5708 38.2553 83.3238 38.3486C83.7366 38.3954 84.1371 38.4628 84.5196 38.5371C84.4935 38.8027 84.382 40.0136 84.5678 40.5681C84.7453 41.0993 85.1182 41.7254 85.6782 41.9153C85.8081 41.9632 85.9465 41.9834 86.0847 41.9747C86.2229 41.966 86.3577 41.9285 86.4805 41.8646C86.6033 41.8008 86.7114 41.7119 86.7979 41.6038C86.8844 41.4957 86.9473 41.3707 86.9827 41.2369C87.1698 40.4113 86.1571 39.3008 85.5062 38.9183C85.4718 38.8976 85.0934 38.7256 84.8182 38.6032C84.9902 38.6403 85.1691 38.6747 85.3342 38.7119C85.952 38.8495 86.5093 39.0201 87.0019 39.1729C87.2771 39.2623 87.5331 39.3476 87.767 39.4302C87.8757 39.7054 88.3298 40.8062 88.7412 41.2011C89.1527 41.596 89.7622 41.9744 90.3471 41.8891C90.4855 41.8724 90.6188 41.8268 90.7384 41.7552C90.858 41.6836 90.9613 41.5877 91.0415 41.4736C91.1217 41.3596 91.177 41.23 91.2038 41.0932C91.2307 40.9564 91.2285 40.8155 91.1974 40.6796C90.9855 39.8677 89.5655 39.3449 88.8183 39.3036C88.7536 39.3036 87.7367 39.3586 87.7422 39.3724V39.3889C87.5193 39.305 87.2785 39.2169 87.0143 39.1274C86.5231 38.9637 85.9686 38.7834 85.3507 38.628C84.687 38.4509 84.0134 38.3131 83.3335 38.2151C82.5728 38.1041 81.8038 38.0608 81.0355 38.0858H81.008C81.2392 38.0032 81.879 37.75 81.9258 37.7253C82.5863 37.3716 83.6555 36.3025 83.5055 35.4769C83.4769 35.3404 83.42 35.2116 83.3383 35.0986C83.2567 34.9857 83.1522 34.8912 83.0316 34.8214C82.9109 34.7515 82.777 34.7079 82.6384 34.6933C82.4998 34.6787 82.3597 34.6934 82.2271 34.7366C81.6588 34.9003 81.257 35.5085 81.0561 36.0314C80.8291 36.6203 80.9185 37.9853 80.9185 38.0954C80.1365 38.1399 79.3582 38.2364 78.5889 38.3844C78.1404 38.4683 77.6918 38.5674 77.2432 38.672C77.4413 38.5935 77.6175 38.522 77.6409 38.5096C78.3013 38.156 79.3705 37.0868 79.2219 36.2612C79.1933 36.1248 79.1364 35.9959 79.0548 35.8829C78.9731 35.7699 78.8686 35.6754 78.7481 35.6054C78.6275 35.5355 78.4936 35.4917 78.355 35.4769C78.2164 35.4621 78.0762 35.4766 77.9436 35.5195C77.3739 35.6833 76.9721 36.2928 76.7712 36.8157C76.5703 37.3386 76.6143 38.511 76.6336 38.8192L76.1176 38.9431C75.292 39.1467 74.4746 39.3559 73.6642 39.532C73.3779 39.5953 73.0945 39.6476 72.811 39.6999C72.9858 39.6297 73.133 39.5705 73.155 39.5623C73.8155 39.21 74.8847 38.1395 74.7361 37.3138C74.7076 37.1774 74.6506 37.0486 74.569 36.9356C74.4873 36.8227 74.3828 36.7282 74.2622 36.6584C74.1416 36.5885 74.0076 36.5449 73.869 36.5303C73.7304 36.5156 73.5903 36.5304 73.4578 36.5735C72.8881 36.7373 72.4877 37.3469 72.2868 37.8684C72.0859 38.3899 72.1216 39.4481 72.1423 39.8127C71.8506 39.8581 71.5575 39.9035 71.2726 39.9338C71.0772 39.9503 70.8901 39.9806 70.6933 39.9861L70.1154 40.015C69.7466 40.015 69.3655 40.026 69.0063 40.0219C68.7559 40.0219 68.5178 40.015 68.2784 40.0095C68.5632 39.9503 69.1192 39.8223 69.1632 39.8058C69.7764 39.5644 70.3174 39.1698 70.7346 38.6596C70.8042 38.6356 70.8715 38.6052 70.9355 38.5688C71.0586 38.5035 71.1666 38.413 71.2525 38.3032C71.3384 38.1935 71.4002 38.0668 71.4339 37.9316C71.4677 37.7964 71.4726 37.6556 71.4484 37.5183C71.4241 37.3811 71.3713 37.2505 71.2933 37.135C70.8048 36.4538 69.2912 36.4759 68.5784 36.7056C68.5371 36.7194 68.0968 36.9162 67.8202 37.0455C67.9715 36.9451 68.1188 36.8488 68.2715 36.7428C68.577 36.5364 68.8756 36.3217 69.1976 36.0919L69.6572 35.7383C69.8127 35.6241 69.9627 35.4837 70.1181 35.3544C70.4718 35.0503 70.8144 34.7228 71.1529 34.3912C71.3346 34.6581 71.9923 35.5966 72.4698 35.8924C72.9473 36.1883 73.6353 36.4208 74.1857 36.213C74.7361 36.0052 75.0305 35.3874 74.7567 34.8508C74.3769 34.1022 72.8784 33.8958 72.1423 34.0128C72.0969 34.021 71.5754 34.1655 71.2905 34.2494C71.4928 34.0458 71.6951 33.8435 71.8918 33.6302C72.4629 33.0165 73.0202 32.3767 73.5802 31.741C73.7508 31.5469 73.9242 31.3543 74.0962 31.1617C74.1609 31.258 74.9218 32.3904 75.453 32.7221C75.9291 33.0165 76.6171 33.2587 77.1689 33.0454C77.3005 32.9997 77.4211 32.9268 77.5226 32.8314C77.6242 32.736 77.7046 32.6203 77.7585 32.4917C77.8123 32.3632 77.8385 32.2248 77.8353 32.0855C77.8321 31.9462 77.7996 31.8091 77.7399 31.6832C77.3602 30.936 75.8617 30.7282 75.1255 30.8465C75.0705 30.8562 74.3205 31.064 74.132 31.1217C74.5118 30.6966 74.8957 30.2769 75.2892 29.8833C75.8182 29.3428 76.3817 28.8371 76.9762 28.3697C77.0065 28.4151 77.7922 29.5999 78.3399 29.9397C78.816 30.2342 79.5026 30.4778 80.0558 30.2645C80.1875 30.2186 80.308 30.1455 80.4096 30.05C80.5112 29.9545 80.5916 29.8386 80.6454 29.71C80.6993 29.5814 80.7255 29.4429 80.7223 29.3035C80.7191 29.164 80.6865 29.0269 80.6268 28.9008C80.247 28.1537 78.7486 27.9473 78.0124 28.0642C77.9546 28.0739 77.1482 28.2995 77.0051 28.3504C77.0395 28.3229 77.0726 28.2913 77.107 28.2651C77.7171 27.8131 78.3659 27.4158 79.0458 27.0776C79.4187 26.8877 79.7861 26.7254 80.1466 26.5754C80.2704 26.812 80.847 27.8826 81.3066 28.2431C81.7662 28.6036 82.4074 28.905 82.9757 28.7536C83.1116 28.7226 83.2395 28.6633 83.3511 28.5796C83.4626 28.4959 83.5552 28.3896 83.623 28.2677C83.6907 28.1459 83.7321 28.0111 83.7443 27.8722C83.7565 27.7333 83.7394 27.5934 83.694 27.4615C83.3981 26.6772 81.9313 26.307 81.1827 26.3428C81.1428 26.3428 80.7314 26.4102 80.4328 26.4625C80.5966 26.3979 80.7644 26.3249 80.9227 26.2685C81.5157 26.0456 82.073 25.8777 82.5739 25.7319C82.8491 25.6521 83.1133 25.586 83.3527 25.5255C83.5949 25.6933 84.5788 26.3593 85.1416 26.4639C85.7044 26.5685 86.4199 26.5465 86.8588 26.1488C87.2978 25.7511 87.3501 25.0755 86.9001 24.6723C86.2754 24.1109 84.8031 24.459 84.1563 24.8347C84.0999 24.8677 83.2839 25.4773 83.2963 25.4869L83.3115 25.4966C83.0775 25.5502 82.8285 25.6094 82.5588 25.6796C82.0593 25.8172 81.4965 25.9699 80.8952 26.1818C80.2453 26.4021 79.609 26.6604 78.9894 26.9552C78.2935 27.2822 77.6281 27.6703 77.001 28.1151L76.979 28.133C77.1262 27.9363 77.5198 27.3721 77.5445 27.3253C77.9009 26.6662 78.2023 25.1842 77.623 24.5733C77.5238 24.4753 77.4051 24.3994 77.2747 24.3503C77.1442 24.3013 77.0049 24.2802 76.8658 24.2885C76.7267 24.2968 76.5909 24.3343 76.4672 24.3986C76.3435 24.4628 76.2347 24.5523 76.1479 24.6613C75.764 25.1113 75.7653 25.8406 75.8864 26.3869C76.024 27.0033 76.8496 28.0972 76.9088 28.1839C76.2821 28.6525 75.6873 29.1623 75.1282 29.7099C74.8007 30.0278 74.4815 30.3567 74.165 30.6911C74.2861 30.5177 74.3934 30.3608 74.4072 30.3374C74.7636 29.6783 75.0636 28.1949 74.4843 27.5854C74.3851 27.4875 74.2664 27.4115 74.136 27.3625C74.0055 27.3134 73.8662 27.2923 73.7271 27.3007C73.588 27.309 73.4522 27.3464 73.3285 27.4107C73.2048 27.4749 73.096 27.5644 73.0092 27.6734C72.6253 28.1234 72.6266 28.8527 72.7477 29.399C72.8688 29.9452 73.5513 30.9002 73.7343 31.1493L73.3601 31.5442C72.7863 32.1689 72.2152 32.7936 71.6373 33.3894C71.435 33.6 71.2245 33.8022 71.0181 34.0004C71.1268 33.8449 71.2162 33.7142 71.2272 33.6922C71.5836 33.033 71.885 31.5511 71.3057 30.9401C71.2065 30.8422 71.0878 30.7663 70.9574 30.7172C70.8269 30.6681 70.6876 30.6471 70.5485 30.6554C70.4094 30.6637 70.2735 30.7012 70.1499 30.7654C70.0262 30.8296 69.9174 30.9192 69.8306 31.0282C69.4466 31.4781 69.448 32.2088 69.5691 32.7551C69.6902 33.3014 70.3067 34.1628 70.5227 34.4586C70.3039 34.6581 70.0865 34.8576 69.865 35.0407C69.7108 35.1617 69.5719 35.2897 69.4109 35.4026L68.943 35.7452C68.6389 35.953 68.3252 36.169 68.0225 36.363C67.8133 36.5006 67.6097 36.6272 67.4088 36.7552C67.6138 36.5488 68.0073 36.1346 68.0362 36.0961C68.4876 35.4989 69.0104 34.0802 68.5288 33.3922C68.4457 33.2804 68.34 33.1873 68.2186 33.119C68.0972 33.0506 67.9627 33.0086 67.824 32.9957C67.6853 32.9827 67.5454 32.999 67.4134 33.0436C67.2814 33.0882 67.1603 33.1601 67.0579 33.2546C66.6093 33.6412 66.5075 34.3623 66.5364 34.9209C66.5776 35.536 67.1927 36.6974 67.2698 36.8474C66.9313 37.0579 66.601 37.2602 66.2873 37.4459Z" fill="#BC9434"/>
<path d="M84.6434 38.4504C84.6434 38.4656 85.6534 38.3541 85.7167 38.3404C86.446 38.1739 87.7601 37.4239 87.8344 36.5887C87.888 35.9874 87.3762 35.5305 86.7969 35.5374C86.2175 35.5443 85.6575 36.0259 85.3259 36.4772C84.9392 37.0056 84.6434 38.4491 84.6434 38.4504Z" fill="#BC9434"/>
<path d="M27.2065 12.8471L24.8641 14.6811L27.7068 18.3117L30.0492 16.4777L27.2065 12.8471Z" fill="#BC9434" stroke="#BC9434" stroke-width="0.561983" stroke-linejoin="round"/>
<path d="M27.0191 10.918L23.0364 14.0363L25.0536 16.6128L29.0363 13.4944L27.0191 10.918Z" fill="#BC9434" stroke="#BC9434" stroke-width="0.561983" stroke-linejoin="round"/>
<path d="M23.8961 13.4853L25.3754 15.3746" stroke="#BC9434" stroke-width="0.561983" stroke-linejoin="round"/>
<path d="M25.2446 12.4299L26.7239 14.3178" stroke="#BC9434" stroke-width="0.561983" stroke-linejoin="round"/>
<path d="M24.8773 13.4426L26.3565 15.3305" stroke="#BC9434" stroke-width="0.561983" stroke-linejoin="round"/>
<path d="M57.5957 16.4803L59.9381 18.3143L62.7808 14.6837L60.4384 12.8497L57.5957 16.4803Z" fill="#BC9434" stroke="#BC9434" stroke-width="0.561983" stroke-linejoin="round"/>
<path d="M58.6108 13.4937L62.5935 16.6121L64.6108 14.0357L60.6281 10.9173L58.6108 13.4937Z" fill="#BC9434" stroke="#BC9434" stroke-width="0.561983" stroke-linejoin="round"/>
<path d="M63.7526 13.4853L62.2734 15.3746" stroke="#BC9434" stroke-width="0.561983" stroke-linejoin="round"/>
<path d="M62.4042 12.4299L60.9249 14.3178" stroke="#BC9434" stroke-width="0.561983" stroke-linejoin="round"/>
<path d="M62.7715 13.4426L61.2923 15.3305" stroke="#BC9434" stroke-width="0.561983" stroke-linejoin="round"/>
<path d="M46.057 6.46893H41.2327V11.3001H46.057V6.46893Z" fill="#BC9434" stroke="#BC9434" stroke-width="0.561983" stroke-linejoin="round"/>
<path d="M47.1358 3.6976H40.1539V8.52882H47.1358V3.6976Z" fill="#BC9434" stroke="#BC9434" stroke-width="0.561983" stroke-linejoin="round"/>
<path d="M40.7813 3.68112V7.70736" stroke="#BC9434" stroke-width="0.561983" stroke-linejoin="round"/>
<path d="M41.3565 7.88761V5.73001" stroke="#BC9434" stroke-width="0.561983" stroke-linejoin="round"/>
<path d="M41.9675 3.78979V6.84457" stroke="#BC9434" stroke-width="0.561983" stroke-linejoin="round"/>
<path d="M42.5784 5.26352V8.06785" stroke="#BC9434" stroke-width="0.561983" stroke-linejoin="round"/>
<path d="M43.5141 3.82562V6.9891" stroke="#BC9434" stroke-width="0.561983" stroke-linejoin="round"/>
<path d="M61.4896 53.5371C71.3455 43.6812 71.3455 27.7016 61.4896 17.8457C51.6337 7.9898 35.6541 7.9898 25.7982 17.8457C15.9423 27.7016 15.9423 43.6812 25.7982 53.5371C35.6541 63.393 51.6337 63.393 61.4896 53.5371Z" fill="#BC9434" stroke="#BC9434" stroke-width="0.561983" stroke-linejoin="round"/>
<path d="M59.3977 51.4452C68.0982 42.7446 68.0982 28.6382 59.3977 19.9376C50.6971 11.2371 36.5907 11.2371 27.8901 19.9376C19.1896 28.6382 19.1896 42.7446 27.8901 51.4452C36.5907 60.1457 50.6971 60.1457 59.3977 51.4452Z" fill="white" stroke="#BC9434" stroke-width="0.561983" stroke-linejoin="round"/>
<path d="M58.1629 50.2104C66.1816 42.1918 66.1816 29.191 58.1629 21.1724C50.1443 13.1537 37.1435 13.1537 29.1249 21.1724C21.1062 29.191 21.1062 42.1918 29.1249 50.2104C37.1435 58.2291 50.1443 58.2291 58.1629 50.2104Z" fill="white" stroke="#BC9434" stroke-width="0.561983" stroke-linejoin="round"/>
<path d="M43.6448 15.1585V17.9422" stroke="#BC9434" stroke-width="0.561983" stroke-linejoin="round"/>
<path d="M43.6448 53.4202V56.2039" stroke="#BC9434" stroke-width="0.561983" stroke-linejoin="round"/>
<path d="M64.1668 35.6819H61.3831" stroke="#BC9434" stroke-width="0.561983" stroke-linejoin="round"/>
<path d="M25.9052 35.6819H23.1215" stroke="#BC9434" stroke-width="0.561983" stroke-linejoin="round"/>
<path d="M58.1563 21.1703L56.1873 23.1381" stroke="#BC9434" stroke-width="0.561983" stroke-linejoin="round"/>
<path d="M31.101 48.2243L29.1333 50.1934" stroke="#BC9434" stroke-width="0.561983" stroke-linejoin="round"/>
<path d="M29.1333 21.1703L31.101 23.1381" stroke="#BC9434" stroke-width="0.561983" stroke-linejoin="round"/>
<path d="M56.1873 48.2243L58.1563 50.1934" stroke="#BC9434" stroke-width="0.561983" stroke-linejoin="round"/>
<path d="M48.7099 33.7266L49.0306 34.9498L28.0462 40.0109L27.9499 39.6435L48.7099 33.7266Z" fill="#BC9434" stroke="#BC9434" stroke-width="0.561983" stroke-linejoin="round"/>
<path d="M44.4498 35.6915C44.4498 35.5323 44.4026 35.3767 44.3141 35.2443C44.2257 35.1119 44.1 35.0088 43.9529 34.9478C43.8058 34.8869 43.6439 34.871 43.4878 34.902C43.3316 34.9331 43.1882 35.0098 43.0756 35.1223C42.963 35.2349 42.8864 35.3783 42.8553 35.5345C42.8243 35.6906 42.8402 35.8525 42.9011 35.9996C42.962 36.1467 43.0652 36.2724 43.1976 36.3608C43.33 36.4493 43.4856 36.4965 43.6448 36.4965C43.7505 36.4965 43.8552 36.4757 43.9529 36.4352C44.0505 36.3948 44.1393 36.3355 44.214 36.2607C44.2888 36.186 44.3481 36.0973 44.3885 35.9996C44.429 35.9019 44.4498 35.7973 44.4498 35.6915Z" fill="white" stroke="#BC9434" stroke-width="0.561983" stroke-linejoin="round"/>
<path d="M35.9129 50.9488L34.6539 50.1232C34.6539 50.1232 33.8737 50.8787 33.8283 50.9488C33.7829 51.019 31.639 51.275 31.2138 51.275C30.7886 51.275 30.4845 51.1745 30.4336 51.3768C30.3827 51.5791 31.0377 52.0304 31.994 52.2822C32.3711 52.3813 32.9215 52.5794 33.4636 52.7735L33.3783 52.9867C33.3783 52.9867 34.8121 53.5151 35.0392 53.5371C35.1162 53.5468 35.1905 53.4298 35.2552 53.2729C35.4795 53.0707 35.9129 50.9488 35.9129 50.9488Z" fill="#BC9434" stroke="#BC9434" stroke-width="0.561983" stroke-linejoin="round"/>
<path d="M57.233 40.1801L57.5358 41.6497C57.5358 41.6497 58.6214 41.6634 58.7109 41.6497C58.8003 41.6359 60.4997 42.961 60.7983 43.2624C61.0969 43.5637 61.2441 43.8472 61.423 43.7399C61.6019 43.6325 61.4547 42.851 60.9538 41.9978C60.7557 41.6621 60.5038 41.1337 60.2575 40.6135L60.4681 40.5227C60.4681 40.5227 59.8227 39.1371 59.6796 38.9596C59.6301 38.899 59.4952 38.9293 59.3397 38.994C59.0315 38.9843 57.233 40.1801 57.233 40.1801Z" fill="#BC9434" stroke="#BC9434" stroke-width="0.561983" stroke-linejoin="round"/>
<path d="M42.5371 36.2488C42.5371 36.2488 42.1339 36.5006 42.1848 36.652C42.2358 36.8033 42.5619 37.0538 42.5619 37.0538C42.5619 37.0538 37.2422 41.6401 37.1417 41.9923C37.0413 42.3446 33.8255 50.1177 33.8255 50.1177L36.2913 51.3562L39.5828 43.5321L45.1791 39.9544C45.1791 39.9544 49.2246 45.709 49.6277 45.6594C50.0309 45.6099 58.3077 41.7543 58.3077 41.7543L57.5 39.8609L50.507 42.2551L48.3233 37.3565C48.3233 37.3565 48.8517 36.4497 48.5255 35.5677C48.1994 34.6856 47.2417 33.3275 47.2417 33.3275L42.5371 36.2488Z" fill="#BC9434" stroke="#BC9434" stroke-width="0.561983" stroke-linejoin="round"/>
<path d="M45.1777 39.9475C45.1777 39.9475 47.8582 38.3431 48.0852 38.1161" stroke="#999999" stroke-width="0.561983" stroke-linejoin="round"/>
<path d="M43.715 36.224C44.0243 35.9483 44.3536 35.6958 44.7002 35.4686C45.2286 35.1672 46.4367 35.2168 46.4367 35.2168" stroke="#999999" stroke-width="0.561983" stroke-linejoin="round"/>
<path d="M42.8633 36.9781C42.8633 36.9781 43.0421 36.813 43.2953 36.5887" stroke="#999999" stroke-width="0.561983" stroke-linejoin="round"/>
<path d="M47.0147 34.9402C47.0147 34.9402 46.0088 34.8136 45.2259 35.0159" stroke="#999999" stroke-width="0.561983" stroke-linejoin="round"/>
<path d="M45.8065 39.6957C45.8065 39.6957 47.8954 40.0741 48.5751 40.0232" stroke="#999999" stroke-width="0.561983" stroke-linejoin="round"/>
<path d="M48.3467 41.3126C48.5091 41.3607 48.67 41.4006 48.8269 41.4323" stroke="#999999" stroke-width="0.561983" stroke-linejoin="round"/>
<path d="M45.7818 40.1498C46.4585 40.5492 47.1684 40.8895 47.9036 41.1667" stroke="#999999" stroke-width="0.561983" stroke-linejoin="round"/>
<path d="M42.1326 35.7961L42.5357 36.2488L47.2417 33.3289L46.939 33.0275L42.1326 35.7961Z" fill="#BC9434" stroke="#BC9434" stroke-width="0.561983" stroke-linejoin="round"/>
<path d="M48.9783 29.9673L49.4103 30.5493L50.4671 30.1833L50.2511 29.6646L48.9783 29.9673Z" fill="white" stroke="#BC9434" stroke-width="0.561983" stroke-linejoin="round"/>
<path d="M37.8586 25.7236C37.8586 25.7236 35.7657 25.7539 34.6938 25.7236C33.6219 25.6934 30.6263 25.0962 30.3868 25.5447C30.1474 25.9933 30.6552 27.2194 32.122 27.6982C33.5888 28.1771 36.7881 28.6257 36.7881 28.6257C36.7881 28.6257 38.1036 30.2769 38.8521 31.258C39.6007 32.2391 40.9753 34.5192 41.095 34.7283C41.2148 34.9375 41.7528 36.2241 42.4711 35.9544C43.1893 35.6847 47.1069 33.2629 47.1069 33.0826C47.1069 32.9023 47.1069 32.6698 46.9885 32.5143C46.8702 32.3588 45.4625 30.6305 45.2231 30.1751C44.9837 29.7196 44.1223 27.5138 44.1223 27.5138L46.0061 27.0653C46.0061 27.0653 48.2201 29.5173 48.6384 29.9067C49.0567 30.2962 49.4159 30.1462 49.4159 30.1462C49.4159 30.1462 50.4038 29.9659 50.4327 29.6673C50.4616 29.3687 47.1427 24.2829 46.8138 24.1041C46.4849 23.9252 44.2709 24.6723 43.3737 24.821C42.4766 24.9696 41.3991 25.0301 40.1428 25.3301C39.3909 25.5112 38.6278 25.6427 37.8586 25.7236Z" fill="white" stroke="#BC9434" stroke-width="0.561983" stroke-linejoin="round"/>
<path d="M44.1071 27.5193L41.1157 28.3559" stroke="#BC9434" stroke-width="0.561983" stroke-linejoin="round"/>
<path d="M42.76 27.9073L41.7142 28.7453" stroke="#BC9434" stroke-width="0.561983" stroke-linejoin="round"/>
<path d="M34.2369 27.456L33.787 27.2496" stroke="#BC9434" stroke-width="0.561983" stroke-linejoin="round"/>
<path d="M34.6841 27.1905L36.7784 28.6257L34.563 27.6074" stroke="#BC9434" stroke-width="0.561983" stroke-linejoin="round"/>
<path d="M41.8174 31.8084C42.8701 32.0272 44.7071 32.3492 46.2565 32.3148" stroke="#BC9434" stroke-width="0.561983" stroke-linejoin="round"/>
<path d="M40.9547 31.613C40.9547 31.613 41.1349 31.6584 41.4418 31.7272" stroke="#BC9434" stroke-width="0.561983" stroke-linejoin="round"/>
<path d="M44.2035 31.8799C44.2035 31.8799 45.4501 32.1386 46.2826 32.1386" stroke="#BC9434" stroke-width="0.561983" stroke-linejoin="round"/>
<path d="M37.8201 27.3033L38.2728 28.8183L38.8617 27.2579L37.8201 27.3033Z" fill="#BC9434" stroke="#BC9434" stroke-width="0.561983" stroke-linejoin="round"/>
<path d="M37.9563 26.1612L37.3591 26.8189L38.3884 27.6432L38.9649 26.6139L37.9563 26.1612Z" fill="white" stroke="#BC9434" stroke-width="0.561983" stroke-linejoin="round"/>
<path d="M37.3591 26.8189L37.6481 28.034L38.0595 27.3749L37.3591 26.8189Z" fill="white" stroke="#BC9434" stroke-width="0.561983" stroke-linejoin="round"/>
<path d="M35.4451 21.5088C35.4451 21.5088 35.0323 22.5175 35.0543 22.7844C35.0763 23.0514 35.2813 23.2165 35.2607 23.5261C35.24 23.8357 34.6016 24.4109 34.7461 24.5554C34.8905 24.6998 35.4244 24.9255 35.4244 24.9255C35.4244 24.9255 36.001 26.1199 36.2074 26.1639C36.4138 26.208 37.5242 25.6493 37.5242 25.6493L38.3884 27.6445L40.0974 25.114L39.5208 23.9816C39.5208 23.9816 40.0148 22.706 39.5415 21.6561C39.0681 20.6062 37.5655 20.5443 36.8445 20.6681C36.1235 20.7919 35.5896 21.0974 35.4451 21.5088Z" fill="white" stroke="#BC9434" stroke-width="0.561983" stroke-miterlimit="10"/>
<path d="M36.8253 21.2846C36.6579 21.249 36.4847 21.251 36.3182 21.2902C36.1517 21.3295 35.9959 21.4051 35.862 21.5116C35.3488 21.8817 34.9153 22.2932 34.7103 21.9244C34.5053 21.5556 35.1424 20.9364 35.1424 20.9364C35.1424 20.9364 34.6277 20.7919 34.8341 20.1961C35.0405 19.6003 35.7974 19.4751 35.7974 19.6815C35.7974 19.8879 35.7354 20.0516 36.312 19.764C36.8886 19.4765 37.1968 19.3925 37.3206 19.7228C37.4445 20.053 38.1848 19.8604 39.0283 20.3392C39.8718 20.8181 40.0782 21.1222 39.8924 22.1927C39.7066 23.2633 39.6667 23.7765 39.5223 23.9816C39.3778 24.1866 38.8631 24.2485 38.6375 24.1673C38.4118 24.0861 38.5343 23.8577 38.5343 23.8577C38.5343 23.8577 39.1315 23.2605 38.8631 22.7872C38.5948 22.3138 38.2054 22.5202 38.0816 22.7872C37.9577 23.0541 38.0196 23.2812 37.8339 23.2812C37.6481 23.2812 37.4844 23.1436 37.4431 22.8491C37.4018 22.5546 37.2587 22.2987 37.1349 22.2519C37.011 22.2051 36.7028 22.4789 36.722 22.0056C36.7292 21.7325 36.8309 21.4704 37.0096 21.2639L36.8253 21.2846Z" fill="#BC9434" stroke="#BC9434" stroke-width="0.561983" stroke-miterlimit="10"/>
<path d="M35.4465 23.3197C35.4411 23.1886 35.4842 23.0601 35.5674 22.9586C35.6506 22.8571 35.7682 22.7898 35.8978 22.7693" stroke="#BC9434" stroke-width="0.561983" stroke-miterlimit="10"/>
<path d="M35.9322 23.5233C35.9721 23.6348 35.9597 23.7421 35.9061 23.7614C35.8524 23.7807 35.7781 23.7036 35.7382 23.5908C35.6983 23.4779 35.7107 23.372 35.7643 23.3527C35.818 23.3335 35.8937 23.4105 35.9322 23.5233Z" fill="#BC9434"/>
<path d="M40.0561 24.4522L38.2659 26.7364L38.5948 27.9514L40.6946 25.0287L40.0561 24.4522Z" fill="white" stroke="#BC9434" stroke-width="0.561983" stroke-linejoin="round"/>
<path d="M38.2714 28.8183C38.3026 28.9216 38.3611 29.0145 38.4408 29.0872C38.5205 29.1599 38.6184 29.2096 38.7241 29.2311C39.086 29.2985 39.719 29.0275 40.0355 28.2129C40.352 27.3982 41.0083 25.1595 41.3922 24.6159C41.7762 24.0724 43.0435 24.0518 43.6998 24.0958C44.3562 24.1398 44.8075 23.5082 45.4185 23.2138C45.7763 23.0398 46.1572 22.918 46.5496 22.8519L47.3201 21.2846L45.7143 21.2392C45.7143 21.2392 44.1305 21.9863 43.7232 22.4611C43.3159 22.9358 43.0228 22.8739 42.1628 23.0486C41.3028 23.2234 40.8294 23.5922 40.4896 24.6324C40.1497 25.6727 39.6984 28.2968 39.2002 28.6587C39.0729 28.7642 38.9201 28.8345 38.7571 28.8625C38.5942 28.8905 38.4267 28.8753 38.2714 28.8183Z" fill="#BC9434" stroke="#BC9434" stroke-width="0.561983" stroke-linejoin="round"/>
<path d="M32.7109 27.1134C32.8967 27.3074 32.9242 27.5826 32.7715 27.7312C32.6187 27.8798 32.3422 27.8427 32.1564 27.6501C31.9706 27.4574 31.9431 27.1808 32.0958 27.0322C32.2486 26.8836 32.5238 26.9263 32.7109 27.1134Z" fill="white" stroke="#BC9434" stroke-width="0.561983" stroke-linejoin="round"/>
<path d="M32.5637 27.489L32.2651 27.1725C32.2651 27.1725 31.6514 25.5736 30.8327 25.1457C30.0139 24.7177 29.0287 25.3686 28.8237 25.9823C28.6186 26.596 29.3452 27.6198 30.1075 27.9362C30.7197 28.1655 31.3479 28.3495 31.9871 28.4866C31.9871 28.4866 32.3408 27.6569 32.5637 27.489Z" fill="white" stroke="#BC9434" stroke-width="0.561983" stroke-linejoin="round"/>
<path d="M31.5028 28.3449L31.5344 28.3862C31.8028 28.4537 31.9871 28.4936 31.9871 28.4936C31.9871 28.4936 32.3408 27.6569 32.5637 27.4891L32.2651 27.1726C32.2651 27.1726 31.4092 27.3212 31.5028 28.3449Z" fill="#BC9434" stroke="#BC9434" stroke-width="0.561983" stroke-linejoin="round"/>
<path d="M34.442 29.9631C34.5504 30.1189 34.6754 30.2624 34.8149 30.3911C34.9635 30.5039 35.0185 30.6333 34.8327 30.6154C34.6079 30.61 34.3942 30.516 34.2383 30.3539C34.0512 30.1503 33.9218 29.9824 33.9218 29.9824L34.442 29.9631Z" fill="white" stroke="#BC9434" stroke-width="0.561983" stroke-linejoin="round"/>
<path d="M34.5355 29.4031C34.5355 29.4031 34.7956 29.831 34.7034 29.9425C34.6112 30.054 33.754 30.0911 33.6232 30.054C33.4925 30.0168 33.5861 29.8489 33.5861 29.8489L34.5355 29.4031Z" fill="white" stroke="#BC9434" stroke-width="0.561983" stroke-linejoin="round"/>
<path d="M34.5163 28.9036C34.5163 28.9036 34.7213 29.2201 34.6842 29.3494C34.647 29.4788 33.7732 29.8709 33.5833 29.8517C33.3934 29.8324 33.4168 29.6852 33.4168 29.6852L34.5163 28.9036Z" fill="white" stroke="#BC9434" stroke-width="0.561983" stroke-linejoin="round"/>
<path d="M34.164 28.5307C34.164 28.5307 34.4984 28.4936 34.5355 28.7357C34.5727 28.9779 34.3677 29.0522 34.2383 29.1637C34.109 29.2751 33.5503 29.6852 33.4196 29.6852C33.2889 29.6852 33.0467 29.3123 33.0467 29.3123L34.164 28.5307Z" fill="white" stroke="#BC9434" stroke-width="0.561983" stroke-linejoin="round"/>
<path d="M32.5637 27.4891C32.5637 27.4891 33.4746 27.8248 33.9026 27.9363C34.3305 28.0477 34.3498 28.4014 34.164 28.5307C33.9782 28.6601 33.4003 29.3687 33.2324 29.4059C33.0646 29.443 32.8196 29.2573 32.8196 29.2573C32.8196 29.2573 32.2981 28.9958 32.2238 28.7922C32.1785 28.6689 32.0939 28.564 31.983 28.4936C31.983 28.4936 31.9307 27.7313 32.5637 27.4891Z" fill="white" stroke="#BC9434" stroke-width="0.561983" stroke-linejoin="round"/>
<path d="M32.8238 29.2572C32.8238 29.2572 32.6752 28.9036 32.8059 28.81C32.9366 28.7165 33.1402 28.9215 33.1402 28.9215C33.1699 28.8137 33.2204 28.7127 33.2889 28.6243" stroke="#BC9434" stroke-width="0.561983" stroke-linejoin="round"/>
<path d="M49.4172 30.5493C49.4664 30.8161 49.4973 31.086 49.5094 31.3571C49.4943 31.5456 49.1654 32.3299 49.1489 32.3767C49.1324 32.4235 49.259 32.612 49.3057 32.6739C49.3525 32.7358 49.5727 32.7056 49.7447 32.8459C49.9167 32.9863 50.1203 33.333 50.3722 33.2587C50.624 33.1844 50.785 32.8459 50.785 32.8459C50.785 32.8459 51.3643 32.5019 51.3794 32.3299C51.3873 32.1179 51.3608 31.906 51.301 31.7024C51.2542 31.5648 50.4754 30.1888 50.4754 30.1888L49.4172 30.5493Z" fill="white" stroke="#BC9434" stroke-width="0.561983" stroke-linejoin="round"/>
<path d="M49.581 32.235C49.581 32.235 49.8782 32.2817 50.0048 32.7372" stroke="#BC9434" stroke-width="0.561983" stroke-linejoin="round"/>
<path d="M49.7378 32.4702L49.0636 32.8156L49.691 33.9908" stroke="#BC9434" stroke-width="1.68595" stroke-linecap="round" stroke-linejoin="round"/>
<path d="M51.3835 31.9061L51.5707 31.8276L52.1981 33.0812" stroke="#BC9434" stroke-width="1.68595" stroke-linejoin="round"/>
<path d="M54.5201 31.8233L47.776 34.833C47.513 34.9503 47.395 35.2587 47.5123 35.5217L49.322 39.5767C49.4393 39.8397 49.7477 39.9578 50.0107 39.8404L56.7548 36.8307C57.0178 36.7133 57.1358 36.405 57.0185 36.1419L55.2088 32.087C55.0915 31.824 54.7831 31.7059 54.5201 31.8233Z" fill="#BC9434" stroke="#BC9434" stroke-width="0.561983" stroke-linejoin="round"/>
</svg>
